{
  "accessors": [
    {
      "bufferView": 2,
      "componentType": 5126,
      "count": 178,
      "max": [0.4974150061607361, 0.5253819823265076, 3.3464949131011963],
      "min": [-0.5988439917564392, -0.3213280141353607, 1.7921099662780762],
      "type": "VEC3"
    },
    {
      "bufferView": 2,
      "byteOffset": 2136,
      "componentType": 5126,
      "count": 178,
      "max": [0.9819890856742859, 0.9963412880897522, 0.9990682005882263],
      "min": [-0.9996667504310608, -0.9944155812263489, -0.8426007032394409],
      "type": "VEC3"
    },
    {
      "bufferView": 0,
      "componentType": 5125,
      "count": 996,
      "type": "SCALAR"
    },
    {
      "bufferView": 2,
      "byteOffset": 4272,
      "componentType": 5126,
      "count": 13,
      "max": [0.9927089810371399, 1.0, 1.8260940313339233],
      "min": [-0.9927089810371399, -0.9709420204162598, 1.8260940313339233],
      "type": "VEC3"
    },
    {
      "bufferView": 2,
      "byteOffset": 4428,
      "componentType": 5126,
      "count": 13,
      "max": [0.0, 0.0, 1.0],
      "min": [0.0, 0.0, 1.0],
      "type": "VEC3"
    },
    {
      "bufferView": 1,
      "componentType": 5126,
      "count": 13,
      "max": [0.9963539838790894, 1.0],
      "min": [0.0036460000555962324, 0.014529000036418438],
      "type": "VEC2"
    },
    {
      "bufferView": 0,
      "byteOffset": 3984,
      "componentType": 5125,
      "count": 33,
      "type": "SCALAR"
    },
    {
      "bufferView": 2,
      "byteOffset": 4584,
      "componentType": 5126,
      "count": 142,
      "max": [1.0646400451660156, 1.0646400451660156, 1.983139991760254],
      "min": [-1.0646400451660156, -1.0646400451660156, 0.0],
      "type": "VEC3"
    },
    {
      "bufferView": 2,
      "byteOffset": 6288,
      "componentType": 5126,
      "count": 142,
      "max": [1.0, 1.0, 0.944966197013855],
      "min": [-1.0, -1.0, -1.0],
      "type": "VEC3"
    },
    {
      "bufferView": 1,
      "byteOffset": 104,
      "componentType": 5126,
      "count": 142,
      "max": [1.0, 3.2089650630950928],
      "min": [0.0, 0.0],
      "type": "VEC2"
    },
    {
      "bufferView": 0,
      "byteOffset": 4116,
      "componentType": 5125,
      "count": 396,
      "type": "SCALAR"
    },
    {
      "bufferView": 2,
      "byteOffset": 7992,
      "componentType": 5126,
      "count": 280,
      "max": [1.634695053100586, 1.5871670246124268, 4.1372809410095215],
      "min": [-2.181507110595703, -1.839784026145935, 1.4220850467681885],
      "type": "VEC3"
    },
    {
      "bufferView": 2,
      "byteOffset": 11352,
      "componentType": 5126,
      "count": 280,
      "max": [0.929650068283081, 0.5107073187828064, 0.9998682141304016],
      "min": [-0.7997341752052307, -0.7459527850151062, 0.34141838550567627],
      "type": "VEC3"
    },
    {
      "bufferView": 1,
      "byteOffset": 1240,
      "componentType": 5126,
      "count": 280,
      "max": [0.7124919891357422, 0.8587160110473633],
      "min": [0.06398999691009521, 0.1584859937429428],
      "type": "VEC2"
    },
    {
      "bufferView": 0,
      "byteOffset": 5700,
      "componentType": 5125,
      "count": 900,
      "type": "SCALAR"
    },
    {
      "bufferView": 2,
      "byteOffset": 14712,
      "componentType": 5126,
      "count": 570,
      "max": [1.1361379623413086, 0.45283201336860657, 4.019869804382324],
      "min": [-1.3498259782791138, -0.7675349712371826, 2.5032689571380615],
      "type": "VEC3"
    },
    {
      "bufferView": 2,
      "byteOffset": 21552,
      "componentType": 5126,
      "count": 570,
      "max": [0.9943113923072815, 0.9609103202819824, 0.9998671412467957],
      "min": [-0.984215497970581, -0.9972975254058838, -0.6837081909179688],
      "type": "VEC3"
    },
    {
      "bufferView": 1,
      "byteOffset": 3480,
      "componentType": 5126,
      "count": 570,
      "max": [0.9909989833831787, 0.817251980304718],
      "min": [0.04562700167298317, 0.004834999796003103],
      "type": "VEC2"
    },
    {
      "bufferView": 0,
      "byteOffset": 9300,
      "componentType": 5125,
      "count": 2160,
      "type": "SCALAR"
    }
  ],
  "asset": {
    "extras": {
      "author": "dudecon (https://sketchfab.com/dudecon)",
      "license": "CC-BY-4.0 (http://creativecommons.org/licenses/by/4.0/)",
      "source": "https://sketchfab.com/3d-models/potted-plant-mediterranean-flowering-low-poly-b8950690664342a497154a8ad2787566",
      "title": "Potted Plant, Mediterranean flowering, low poly"
    },
    "generator": "Sketchfab-12.68.0",
    "version": "2.0"
  },
  "bufferViews": [
    {
      "buffer": 0,
      "byteLength": 17940,
      "name": "floatBufferViews",
      "target": 34963
    },
    {
      "buffer": 0,
      "byteLength": 8040,
      "byteOffset": 17940,
      "byteStride": 8,
      "name": "floatBufferViews",
      "target": 34962
    },
    {
      "buffer": 0,
      "byteLength": 28392,
      "byteOffset": 25980,
      "byteStride": 12,
      "name": "floatBufferViews",
      "target": 34962
    }
  ],
  "buffers": [
    {
      "byteLength": 54372,
      "uri": "computer.bin"
    }
  ],
  "images": [
    {
      "uri": "textures/Leaf_baseColor.jpeg"
    },
    {
      "uri": "textures/Petal_baseColor.jpeg"
    }
  ],
  "materials": [
    {
      "name": "Brown",
      "pbrMetallicRoughness": {
        "baseColorFactor": [
          0.15572595524430866, 0.16460807970228092, 0.013668417087122554, 1.0
        ],
        "roughnessFactor": 0.5428454602387076
      }
    },
    {
      "doubleSided": true,
      "name": "Leaf",
      "pbrMetallicRoughness": {
        "baseColorFactor": [
          0.810373079425302, 0.810373079425302, 0.810373079425302, 1.0
        ],
        "baseColorTexture": {
          "index": 0
        },
        "metallicFactor": 0.0,
        "roughnessFactor": 0.5
      }
    },
    {
      "doubleSided": true,
      "name": "Petal",
      "pbrMetallicRoughness": {
        "baseColorTexture": {
          "index": 1
        },
        "metallicFactor": 0.0,
        "roughnessFactor": 0.7070101356486633
      }
    },
    {
      "name": "White",
      "pbrMetallicRoughness": {
        "baseColorFactor": [0.8, 0.8, 0.8, 1.0],
        "metallicFactor": 0.0,
        "roughnessFactor": 0.0
      }
    }
  ],
  "meshes": [
    {
      "name": "Object_0",
      "primitives": [
        {
          "attributes": {
            "NORMAL": 1,
            "POSITION": 0
          },
          "indices": 2,
          "material": 0,
          "mode": 4
        }
      ]
    },
    {
      "name": "Object_1",
      "primitives": [
        {
          "attributes": {
            "NORMAL": 4,
            "POSITION": 3,
            "TEXCOORD_0": 5
          },
          "indices": 6,
          "material": 0,
          "mode": 4
        }
      ]
    },
    {
      "name": "Object_2",
      "primitives": [
        {
          "attributes": {
            "NORMAL": 8,
            "POSITION": 7,
            "TEXCOORD_0": 9
          },
          "indices": 10,
          "material": 3,
          "mode": 4
        }
      ]
    },
    {
      "name": "Object_3",
      "primitives": [
        {
          "attributes": {
            "NORMAL": 12,
            "POSITION": 11,
            "TEXCOORD_0": 13
          },
          "indices": 14,
          "material": 1,
          "mode": 4
        }
      ]
    },
    {
      "name": "Object_4",
      "primitives": [
        {
          "attributes": {
            "NORMAL": 16,
            "POSITION": 15,
            "TEXCOORD_0": 17
          },
          "indices": 18,
          "material": 2,
          "mode": 4
        }
      ]
    }
  ],
  "nodes": [
    {
      "children": [1],
      "matrix": [
        0.2203221619129181, 0.0, 0.0, 0.0, 0.0, 4.892134739818268e-17,
        -0.2203221619129181, 0.0, 0.0, 0.2203221619129181,
        4.892134739818268e-17, 0.0, 0.0, 0.0, 0.0, 1.0
      ],
      "name": "Sketchfab_model"
    },
    {
      "children": [2, 3, 4, 5, 6],
      "name": "Plant3_Flowers.obj.cleaner.materialmerger.gles"
    },
    {
      "mesh": 0,
      "name": "Object_2"
    },
    {
      "mesh": 1,
      "name": "Object_3"
    },
    {
      "mesh": 2,
      "name": "Object_4"
    },
    {
      "mesh": 3,
      "name": "Object_5"
    },
    {
      "mesh": 4,
      "name": "Object_6"
    }
  ],
  "samplers": [
    {
      "magFilter": 9729,
      "minFilter": 9987,
      "wrapS": 10497,
      "wrapT": 10497
    }
  ],
  "scene": 0,
  "scenes": [
    {
      "name": "Sketchfab_Scene",
      "nodes": [0]
    }
  ],
  "textures": [
    {
      "sampler": 0,
      "source": 0
    },
    {
      "sampler": 0,
      "source": 1
    }
  ]
}
